Coordinates
version=1
nRows=32
nColumns=12
inDegrees=yes

Units are S.I. units (second, meters, Newtons, ...)
Angles are in degrees

endheader
time	SC_y	SC_z	SC_x	AC_y	AC_z	AC_x	GH_y	GH_z	GH_yy	EL_x	PS_y
       0.0              -13.44          12.85          31.83          61.31         -1.227         -1.096          91.06          75.19          80.61          44.54          137.2
  0.002156              -13.44          12.85          31.83           61.3         -1.229         -1.097          91.06          75.17          80.57          44.55          137.2
  0.004312              -13.45          12.85          31.83           61.3          -1.23         -1.099          91.06          75.16          80.53          44.56          137.2
  0.006468              -13.45          12.85          31.83          61.29         -1.231         -1.101          91.06          75.15          80.49          44.57          137.2
  0.008623              -13.46          12.84          31.83          61.29         -1.233         -1.103          91.06          75.13          80.44          44.59          137.1
   0.01078              -13.47          12.84          31.83          61.28         -1.234         -1.105          91.06          75.11           80.4           44.6          137.1
   0.01294              -13.47          12.84          31.83          61.28         -1.236         -1.107          91.06          75.09          80.34          44.61          137.1
   0.01509              -13.48          12.84          31.82          61.27         -1.237         -1.109          91.06          75.07          80.29          44.62          137.1
   0.01725              -13.49          12.84          31.82          61.27         -1.239         -1.112          91.06          75.05          80.23          44.64          137.0
    0.0194              -13.49          12.83          31.82          61.26         -1.241         -1.114          91.06          75.03          80.16          44.65          137.0
   0.02156               -13.5          12.83          31.82          61.25         -1.243         -1.117          91.06          75.01           80.1          44.67          137.0
   0.02371              -13.51          12.83          31.82          61.24         -1.245          -1.12          91.06          74.98          80.02          44.69          136.9
   0.02587              -13.52          12.82          31.82          61.23         -1.248         -1.124          91.06          74.95          79.94          44.71          136.9
   0.02803              -13.53          12.82          31.81          61.22          -1.25         -1.127          91.06          74.92          79.86          44.73          136.9
   0.03018              -13.54          12.82          31.81          61.21         -1.253         -1.131          91.06          74.89          79.76          44.75          136.8
   0.03234              -13.56          12.81          31.81           61.2         -1.256         -1.135          91.06          74.85          79.66          44.78          136.8
   0.03449              -13.57          12.81          31.81          61.19         -1.259          -1.14          91.06          74.81          79.55           44.8          136.7
   0.03665              -13.58           12.8           31.8          61.18         -1.263         -1.145          91.06          74.77          79.43          44.83          136.6
   0.03881               -13.6           12.8           31.8          61.16         -1.267          -1.15          91.05          74.73           79.3          44.87          136.6
   0.04096              -13.62          12.79           31.8          61.15         -1.271         -1.156          91.05          74.68          79.16           44.9          136.5
   0.04312              -13.64          12.79          31.79          61.13         -1.276         -1.162          91.05          74.62          79.01          44.94          136.4
   0.04527              -13.66          12.78          31.79          61.11         -1.281         -1.169          91.05          74.56          78.83          44.98          136.3
   0.04743              -13.68          12.77          31.78          61.09         -1.287         -1.177          91.05          74.49          78.64          45.03          136.3
   0.04958              -13.71          12.77          31.78          61.06         -1.293         -1.186          91.05          74.42          78.43          45.08          136.1
   0.05174              -13.74          12.76          31.77          61.04           -1.3         -1.196          91.05          74.33           78.2          45.14          136.0
    0.0539              -13.77          12.75          31.77          61.01         -1.308         -1.206          91.05          74.24          77.94           45.2          135.9
   0.05605               -13.8          12.74          31.76          60.97         -1.317         -1.219          91.05          74.14          77.64          45.28          135.8
   0.05821              -13.84          12.72          31.75          60.94         -1.327         -1.232          91.04          74.02          77.31          45.36          135.6
   0.06036              -13.89          12.71          31.74          60.89         -1.338         -1.248          91.04          73.89          76.94          45.45          135.4
   0.06252              -13.94          12.69          31.73          60.85         -1.351         -1.265          91.04          73.74          76.52          45.55          135.2
   0.06468               -14.0          12.67          31.72          60.79         -1.366         -1.285          91.04          73.57          76.03          45.67          135.0
   0.06683              -14.07          12.65          31.71          60.73         -1.382         -1.308          91.03          73.37          75.48          45.81          134.7
